HIERARCHY
ROOT pelvis
{
	OFFSET 0.000000 0.000000 0.000000
	CHANNELS 6 Xposition Yposition Zposition Zrotation Xrotation Yrotation
	JOINT lfemur
	{
		OFFSET 11.446000 0.000000 0.000000
		CHANNELS 3 Zrotation Xrotation Yrotation
		JOINT ltibia
		{
			OFFSET 0.000000 -42.030400 0.000000
			CHANNELS 3 Zrotation Xrotation Yrotation
			JOINT lfoot
			{
				OFFSET 0.000000 -39.930200 0.000000
				CHANNELS 3 Zrotation Xrotation Yrotation
				JOINT ltoes
				{
					OFFSET 0.000000 0.000000 11.775800
					CHANNELS 3 Zrotation Xrotation Yrotation
					End Site
					{
					    OFFSET 0.000000 0.000000 5.000000
					}
				}
			}
		}
	}
	JOINT rfemur
	{
		OFFSET -11.446000 0.000000 0.000000
		CHANNELS 3 Zrotation Xrotation Yrotation
		JOINT rtibia
		{
			OFFSET 0.000000 -42.030400 0.000000
			CHANNELS 3 Zrotation Xrotation Yrotation
			JOINT rfoot
			{
				OFFSET 0.000000 -39.930200 0.000000
				CHANNELS 3 Zrotation Xrotation Yrotation
				JOINT rtoes
				{
					OFFSET 0.000000 0.000000 11.775800
					CHANNELS 3 Zrotation Xrotation Yrotation
					End Site
					{
					    OFFSET 0.000000 0.000000 5.000000
					}
				}
			}
		}
	}
	JOINT thorax
	{
		OFFSET 0.000000 11.255600 -5.000000
		CHANNELS 3 Zrotation Xrotation Yrotation
		JOINT head
		{
			OFFSET 0.000000 43.799300 0.000000
			CHANNELS 3 Zrotation Xrotation Yrotation
			End Site
			{
			    OFFSET 0.000000 5.000000 0.000000
			}
		}
		JOINT lclavicle
		{
			OFFSET 0.000000 39.863000 0.000000
			CHANNELS 3 Zrotation Xrotation Yrotation
			JOINT lhumerus
			{
				OFFSET 17.380600 4.958300 0.000000
				CHANNELS 3 Zrotation Xrotation Yrotation
				JOINT lradius
				{
					OFFSET 0.000000 -27.561300 0.000000
					CHANNELS 3 Zrotation Xrotation Yrotation
					JOINT lhand
					{
						OFFSET 0.000000 -26.933000 0.000000
						CHANNELS 3 Zrotation Xrotation Yrotation
						End Site
						{
						    OFFSET 0.000000 -5.000000 0.000000
						}
					}
				}
			}
		}
		JOINT rclavicle
		{
			OFFSET 0.000000 39.863000 0.000000
			CHANNELS 3 Zrotation Xrotation Yrotation
			JOINT rhumerus
			{
				OFFSET -17.380600 4.958300 0.000000
				CHANNELS 3 Zrotation Xrotation Yrotation
				JOINT rradius
				{
					OFFSET 0.000000 -27.561300 0.000000
					CHANNELS 3 Zrotation Xrotation Yrotation
					JOINT rhand
					{
						OFFSET 0.000000 -26.933000 0.000000
						CHANNELS 3 Zrotation Xrotation Yrotation
						End Site
						{
						    OFFSET 0.000000 -5.000000 0.000000
						}
					}
				}
			}
		}
	}
}
MOTION
Frames:	20
Frame Time:	0.0333333
68.313700 87.195700 2.736700 -1.542759 -1.253692 -91.773676 -5.211869 -3.355074 -10.272411 -0.000000 21.343669 -0.000000 -0.000000 -0.006351 8.132312 -0.000000 -1.343722 -0.000000 -0.777190 -2.782466 -1.033795 -0.000000 18.495664 0.000000 0.000000 0.924249 -1.242036 -0.000000 -29.547394 -0.000000 -4.012638 4.793800 -0.039742 12.841598 25.189646 8.165167 3.328761 0.000000 2.127245 80.682273 3.839948 64.004491 0.000000 -13.985494 -56.854718 16.275773 2.789297 -0.000000 -4.787339 0.000000 -0.941299 -77.887126 3.739369 -67.209649 -0.000002 -22.858698 46.026672 -15.040273 1.699496 -0.000000 
68.456700 87.172100 2.840500 -1.418630 -1.273018 -91.645248 -5.294329 -3.561423 -10.522508 -0.000000 21.337077 0.000000 -0.000000 -0.049573 8.070187 -0.000000 -1.335571 -0.000000 -0.855737 -3.084164 -1.199247 0.000000 18.692792 -0.000000 -0.000000 0.774724 -1.228638 -0.000000 -29.547790 -0.000000 -3.949949 4.913896 -0.145483 12.686363 25.102997 8.118891 3.382231 0.000000 2.065587 80.623291 3.863636 63.777451 -0.000001 -14.174214 -56.628952 16.058071 2.565585 0.000000 -4.940213 -0.000000 -1.073322 -77.845393 3.575566 -67.121343 -0.000000 -23.107685 45.859564 -15.210268 1.756599 -0.000000 
68.546600 87.163900 2.934700 -1.475107 -1.278650 -91.522164 -5.315254 -3.549844 -10.591840 -0.000000 21.332864 -0.000000 0.000000 -0.003648 7.810226 -0.000000 -1.343878 -0.000000 -0.913008 -3.145138 -1.234329 -0.000000 18.845452 -0.000000 0.000000 0.693318 -1.366427 -0.000000 -29.546899 -0.000000 -3.902553 5.117088 -0.273290 12.484561 25.098262 8.057505 3.440975 0.000000 2.026010 80.698157 3.895757 63.774010 0.000001 -14.278908 -56.210197 16.286314 2.601890 -0.000000 -4.992739 -0.000000 -1.080279 -77.908752 3.493069 -67.196854 -0.000000 -23.232868 46.189694 -15.530276 1.865537 0.000000 
68.621400 87.175200 3.005400 -1.425770 -1.316132 -91.392789 -5.350373 -3.535126 -10.677642 -0.000000 21.095693 -0.000000 -0.000000 0.077102 7.642831 -0.000000 -1.344030 0.000000 -0.980139 -3.237163 -1.231766 0.000000 18.881768 0.000000 0.000000 0.662326 -1.427189 -0.000000 -29.546766 -0.000000 -3.922034 5.240132 -0.371573 12.479077 24.969458 7.836230 3.587739 0.000000 1.964707 80.740433 4.012362 64.022857 0.000000 -14.289129 -57.173421 16.078102 2.363276 -0.000000 -4.838134 -0.000000 -1.179614 -78.143576 3.473058 -67.050262 -0.000001 -23.190959 47.177882 -15.532749 1.864162 0.000000 
68.691700 87.184300 3.068600 -1.262963 -1.399816 -91.234980 -5.422835 -3.614921 -10.733509 -0.000000 20.796397 0.000000 0.000000 0.215116 7.508605 -0.000000 -1.347456 -0.000000 -1.094341 -3.400604 -1.274501 -0.000000 18.845382 -0.000000 -0.000000 0.622551 -1.508197 0.000000 -29.546581 -0.000000 -3.954994 5.199201 -0.428070 12.335658 24.979962 7.790213 3.532944 -0.000000 1.863457 80.913483 4.216167 63.447144 0.000000 -14.577024 -56.450652 16.110721 2.566186 0.000000 -4.915123 -0.000000 -1.306951 -77.965501 3.475634 -67.139736 0.000001 -23.741819 46.975494 -15.140370 1.731312 0.000000 
68.714800 87.204000 3.094700 -1.186983 -1.490411 -91.065213 -5.488376 -3.512751 -10.855987 -0.000000 20.391896 -0.000000 -0.000000 0.386376 7.397039 -0.000000 -1.343855 -0.000000 -1.182549 -3.462068 -1.260221 0.000000 18.857723 0.000000 -0.000000 0.609891 -1.647724 0.000000 -29.546704 -0.000000 -4.021691 5.256645 -0.467322 12.238301 24.928413 7.728680 3.502529 0.000000 1.869994 81.058860 4.268731 63.267689 0.000000 -14.697361 -56.686089 16.353470 2.836580 0.000000 -4.747582 0.000000 -1.568015 -78.174786 3.261467 -67.006855 -0.000002 -23.833113 46.393243 -15.295567 1.785198 0.000000 
68.739100 87.212700 3.097900 -1.060314 -1.547652 -90.905432 -5.507268 -3.579576 -10.876976 0.000000 20.199363 0.000000 0.000000 0.454199 7.304854 0.000000 -1.348779 -0.000000 -1.240783 -3.600670 -1.352408 -0.000000 18.902737 -0.000000 0.000000 0.588979 -1.719663 -0.000000 -29.546544 -0.000000 -4.019639 5.326626 -0.525961 12.065245 24.864752 7.787895 3.498991 0.000000 2.287599 81.094770 3.738201 63.604863 -0.000001 -14.556150 -56.786767 16.656501 2.791014 -0.000000 -4.819569 -0.000000 -1.969913 -77.960329 2.730474 -67.490308 -0.000000 -23.993104 46.210446 -15.639050 1.901949 -0.000000 
68.755100 87.223900 3.058300 -0.937946 -1.569405 -90.703871 -5.505951 -3.730298 -10.988742 0.000000 20.200949 -0.000000 0.000000 0.556020 7.255833 0.000000 -1.353167 -0.000000 -1.216090 -3.690333 -1.427668 0.000000 18.880187 -0.000000 0.000000 0.652431 -1.861026 -0.000000 -29.546858 -0.000000 -3.951671 5.248157 -0.441180 11.958889 25.092664 7.562222 3.320253 0.000000 1.916240 81.349800 3.909250 64.212330 -0.000000 -14.204834 -57.061181 16.534518 2.457533 -0.000000 -4.858724 -0.000000 -1.643823 -77.604788 3.430023 -67.525073 -0.000001 -24.790785 44.817871 -15.269080 1.775988 -0.000000 
68.731600 87.229300 2.985700 -0.884253 -1.552795 -90.505689 -5.450011 -3.830569 -11.171929 0.000000 20.300954 -0.000000 0.000000 0.575263 7.169334 0.000000 -1.351861 -0.000000 -1.150820 -3.653747 -1.575271 0.000000 18.792769 -0.000000 0.000000 0.644544 -1.925194 -0.000000 -29.546288 -0.000000 -3.904277 5.310802 -0.480064 11.895832 25.067654 7.525946 3.271473 0.000000 1.579281 81.099036 4.558688 63.929335 -0.000000 -14.559916 -56.941651 16.452228 2.467999 0.000000 -4.374908 -0.000000 -1.660783 -78.058787 3.353731 -67.466501 -0.000001 -24.817206 44.648739 -14.632747 1.561726 -0.000000 
68.690400 87.214700 2.863100 -0.835536 -1.551534 -90.338113 -5.373387 -3.931333 -11.283106 -0.000000 20.449823 -0.000000 0.000000 0.519968 7.072440 0.000000 -1.355815 0.000000 -1.062927 -3.679538 -1.673567 -0.000000 18.869940 -0.000000 -0.000000 0.525678 -2.020821 -0.000000 -29.545892 -0.000000 -3.910371 5.368750 -0.586230 11.837694 25.107006 7.482415 3.199520 0.000000 1.549132 80.817081 4.982932 63.607008 -0.000000 -14.809551 -56.984391 16.632819 2.570517 0.000000 -3.780259 -0.000000 -1.587034 -78.397847 3.373993 -66.721636 0.000001 -24.821369 45.432142 -15.621500 1.893000 -0.000000 
68.675900 87.202000 2.716000 -0.718732 -1.596699 -90.188575 -5.332810 -4.028965 -11.543944 -0.000000 20.427529 0.000000 -0.000000 0.505207 7.109162 -0.000000 -1.360119 -0.000000 -0.968429 -3.796540 -1.516883 -0.000000 18.955394 -0.000000 -0.000000 0.404149 -2.303714 -0.000000 -29.545704 0.000000 -3.919209 5.403158 -0.521203 11.824763 25.086039 7.328958 2.894596 0.000000 1.610182 80.739374 4.948898 64.008486 0.000001 -14.814951 -56.707633 16.860234 2.317856 0.000000 -3.772482 0.000000 -1.764224 -77.738918 2.998171 -66.794057 0.000000 -25.713462 43.841262 -15.553925 1.874066 -0.000000 
68.681500 87.190700 2.521100 -0.506754 -1.577799 -89.901842 -5.206599 -4.393594 -11.777964 0.000000 20.688154 -0.000000 -0.000000 0.499396 6.983592 -0.000000 -1.364386 0.000000 -0.824545 -4.020363 -1.731813 -0.000000 19.049519 -0.000000 0.000000 0.316987 -2.373528 -0.000000 -29.545219 -0.000000 -3.928567 5.463260 -0.677519 11.711156 24.937494 7.454900 2.446618 -0.000000 1.938577 80.601663 4.882439 64.024636 0.000001 -15.011518 -56.586004 16.894944 2.572221 0.000000 -3.020984 0.000000 -1.987876 -77.547338 2.660487 -66.162812 0.000001 -26.796903 42.801181 -14.277575 1.441023 0.000000 
68.697600 87.176200 2.277400 -0.227039 -1.701059 -89.579776 -5.171804 -4.695907 -12.099332 -0.000000 20.676114 -0.000000 -0.000000 0.580988 6.902510 -0.000000 -1.370536 0.000000 -0.797579 -4.394469 -1.939109 -0.000000 19.337537 -0.000000 0.000000 0.104240 -2.437703 -0.000000 -29.544365 -0.000000 -4.114012 5.598673 -0.808659 11.601401 24.677342 7.672142 2.027053 -0.000000 2.217415 79.792618 4.762998 64.463820 0.000000 -15.360156 -57.507233 18.044890 2.195599 0.000000 -1.807027 -0.000000 -2.146239 -77.295544 2.572571 -64.778341 -0.000001 -28.525187 40.093005 -13.515824 1.181657 -0.000000 
68.745100 87.167200 2.001500 0.126495 -1.757698 -89.118696 -5.051611 -5.067357 -12.429627 0.000000 20.584506 0.000000 -0.000000 0.662376 6.739239 -0.000000 -1.378031 0.000000 -0.653002 -4.767193 -2.035637 -0.000000 19.456544 0.000000 -0.000000 -0.054536 -2.754812 0.000000 -29.543194 -0.000000 -4.274554 5.685984 -1.068882 11.478658 24.416845 7.830504 1.428382 0.000000 2.521197 77.805660 5.215720 61.978655 -0.000001 -17.557824 -57.118670 19.437609 2.226480 0.000000 0.025667 0.000000 -2.496865 -76.782162 2.103653 -62.900978 0.000003 -31.128809 36.149429 -12.637783 0.884568 0.000000 
68.805800 87.168300 1.654800 0.502699 -1.791570 -88.416693 -4.864190 -5.607258 -12.683882 0.000000 20.686783 -0.000000 0.000000 0.849726 6.328958 0.000000 -1.390196 -0.000000 -0.458088 -5.066840 -2.423662 0.000000 19.441239 -0.000000 -0.000000 -0.140473 -3.027071 0.000000 -29.541599 0.000000 -4.429268 5.991446 -1.319923 11.298488 23.995269 8.085468 0.101981 0.000000 2.703728 75.178651 5.859166 58.414601 -0.000000 -21.701530 -55.806177 20.395003 1.328641 -0.000000 2.528030 -0.000000 -2.792563 -76.090869 2.400649 -59.227400 -0.000001 -34.609857 33.000961 -10.504977 0.160632 0.000000 
68.940600 87.169500 1.322600 1.022158 -1.821193 -87.806775 -4.745321 -6.341103 -13.177996 -0.000000 20.830644 -0.000000 0.000000 1.009587 6.187699 0.000000 -1.398418 -0.000000 -0.265881 -5.588464 -2.565239 0.000000 19.437585 -0.000000 -0.000000 -0.235471 -3.434260 -0.000000 -29.539960 -0.000000 -4.495294 6.255408 -1.489632 11.051485 23.659914 8.387792 -2.055964 -0.000000 3.001259 71.335738 7.338362 53.043390 -0.000001 -29.147018 -51.746420 20.071894 0.323598 -0.000000 5.681780 0.000000 -2.777867 -75.314395 2.868145 -54.790172 0.000001 -38.572248 29.556827 -6.311836 -1.260748 -0.000000 
69.140800 87.113800 0.881700 1.573538 -1.720280 -86.839029 -4.481527 -7.520924 -13.525709 -0.000000 21.607170 -0.000000 -0.000000 0.957357 5.621035 -0.000000 -1.411687 0.000000 0.082181 -6.259196 -3.075711 -0.000000 19.629379 -0.000000 -0.000000 -0.358656 -3.827850 0.000000 -29.538542 0.000000 -4.504862 6.573778 -1.667986 10.962469 23.029883 7.997084 -4.463838 0.000000 3.140703 66.353254 9.175800 47.760929 -0.000001 -39.119311 -43.996089 15.227028 -2.200485 0.000000 8.629356 -0.000000 -3.249992 -72.787448 3.510384 -48.070015 0.000003 -44.063922 23.322701 -2.916021 -2.411060 0.000000 
69.383700 87.058500 0.357900 2.143344 -1.636789 -85.795868 -4.251073 -8.983655 -13.703687 0.000000 22.761093 -0.000000 -0.000000 1.112528 4.940865 -0.000000 -1.426801 -0.000000 0.512010 -6.945247 -3.250589 0.000000 19.738629 0.000000 0.000000 -0.494894 -4.755518 -0.000000 -29.536275 0.000000 -4.633276 7.103179 -1.790589 10.784524 22.565015 8.324485 -6.290935 0.000000 3.860600 59.804412 10.362006 42.008087 -0.000002 -49.454364 -34.267913 9.644331 -4.530102 -0.000000 10.995838 0.000000 -3.566036 -68.659873 4.571914 -39.711775 -0.000000 -50.266442 17.942376 1.106357 -3.774295 0.000000 
69.658600 86.949900 -0.184000 2.813076 -1.437909 -84.557577 -3.975944 -10.947433 -13.540723 -0.000000 24.499800 -0.000000 -0.000000 1.036322 4.015313 -0.000000 -1.436082 0.000000 0.906720 -7.804705 -4.164128 -0.000000 19.962228 -0.000000 0.000000 -0.764784 -5.054658 -0.000000 -29.534270 -0.000000 -4.612461 7.622979 -1.913562 10.741277 21.916031 7.910415 -8.204039 -0.000000 4.349117 52.991927 11.495730 34.186174 -0.000002 -59.061874 -28.170368 6.202292 -6.303207 -0.000000 13.107905 -0.000000 -3.633909 -64.012766 6.013512 -29.406521 0.000000 -56.972530 12.998749 3.793329 -4.690953 -0.000000 
70.049400 86.771200 -0.720700 3.620886 -1.149756 -82.925281 -3.815276 -13.605739 -13.356831 -0.000000 27.064156 -0.000000 -0.000000 0.845744 2.913568 -0.000000 -1.445969 -0.000000 1.169870 -9.145843 -5.737410 0.000000 20.795873 -0.000000 -0.000000 -1.298820 -5.015027 -0.000000 -29.533304 -0.000000 -4.510033 8.134793 -2.009067 10.746626 21.138758 7.179949 -10.372483 -0.000000 4.149144 46.674497 12.351424 25.901944 0.000003 -67.671956 -26.826280 2.087160 -8.988327 0.000000 14.973893 -0.000000 -2.891938 -58.932776 8.158376 -18.441174 -0.000001 -63.893977 10.842838 4.202790 -4.837723 -0.000000 
